<svg xmlns="http://www.w3.org/2000/svg" id="flag" viewBox="0 0 512 512"><defs><style>      .cls-1 {        fill: #295135;      }      .cls-2 {        fill: #cdde00;      }    </style></defs><g><path class="cls-2" d="M371.21,284.07l-9.68-7.14c-.76,3.39-2.36,6.59-4.75,9.12-2.69,2.85-6.29,4.74-10.11,5.57,7.13,5.47,7.42,5.68,10.34,7.85l2.22,1.64c4.58,3.4,10.91,2.54,14.42-1.95,1.68-2.15,2.39-4.87,2.01-7.64-.41-2.96-2.03-5.67-4.44-7.45Z"></path><path class="cls-2" d="M333.19,302.06c-1.61,6.38-5,12.33-9.79,16.85-.31.29-.63.58-.95.86,1.6,1.22,2.25,1.7,3.17,2.38.51.38,1.1.81,1.98,1.47,4.29,3.23,10.27,2.92,13.91-.72,3.65-3.65,4.11-9.42,1.14-13.53l-9.45-7.3Z"></path><path class="cls-2" d="M302.49,325.18c0,5.63-2.6,11.27-7.07,14.72-1.35,1.04-2.86,1.87-4.45,2.48,1.21.91,2.13,1.59,3.74,2.78l3.32,2.44c4.54,3.35,10.87,2.82,14.41-1.21,3.22-3.7,3.44-9.18.56-13.12l-10.52-8.09Z"></path><path class="cls-2" d="M273.82,349.9c-1.04,3.07-2.46,6.05-3.86,8.97-1.38,2.87-2.82,5.91-5.2,8.11-.29.26-.59.5-.91.72l.55.41c4.43,3.24,10.52,2.84,14.15-.94,3.22-3.36,3.82-8.43,1.5-12.46l-6.22-4.81Z"></path><path class="cls-2" d="M449.28,233.23c-10.08,4.4-20.1,8.93-30.06,13.59,1.74,4.4,3.06,7.77,3.8,9.64l30.64-12.09-4.38-11.14Z"></path><path class="cls-2" d="M366.75,260.32c6.31,4.66,11.5,8.48,13.54,9.99l24.17-15.54c-.9-2.27-2.59-6.57-4.77-12.09-10.43,6.84-21.47,12.75-32.94,17.64Z"></path></g><path class="cls-1" d="M469.56,239.96l-15.44-39.26c-.78-2.03-2.31-3.63-4.31-4.51-2.03-.89-4.28-.93-6.33-.13-2.03.78-3.63,2.31-4.51,4.31-.89,2.03-.93,4.28-.12,6.35l10.42,26.5,4.38,11.14-30.64,12.09c-.74-1.87-2.06-5.24-3.8-9.64-9.78-24.81-32.65-82.78-37.52-95.06l30.64-12.09,15.8,39.98c.78,2.03,2.31,3.63,4.31,4.51,2.03.89,4.28.94,6.33.13,2.03-.78,3.63-2.31,4.51-4.31.89-2.03.93-4.28.12-6.35l-16.44-41.59c-2.96-7.54-11.53-11.25-19.12-8.27l-33.88,13.37c-6.31,2.51-10.03,9-9.18,15.6l-16.59,6.14c-5.29,1.94-11.09,2.51-16.76,1.64l-18.37-2.91c-4.51-.66-8.64,2.32-9.41,6.84-.66,4.51,2.32,8.64,6.81,9.41l18.35,2.91c8.5,1.31,17.14.48,24.99-2.42l16.51-6.05c3.93,9.98,20.58,52.16,29.36,74.4,2.18,5.52,3.88,9.82,4.77,12.09l-24.17,15.54c-2.05-1.51-7.23-5.33-13.54-9.99-14.8-10.92-35.82-26.43-37.24-27.53-1.82-1.37-4.05-1.86-6.43-1.45-23.85,4.06-46.63-3.72-64.14-21.91-6.04-6.32-15.91-6.66-22.46-.77-15.88,14.21-37.97,28.17-53,13.99-.33-.32-.51-.79-.46-1.27.04-.41.24-1,1-1.5,25.01-16.1,47.88-37.82,59.29-49.35,3.76-3.84,9.27-5.64,14.7-4.82l23.68,3.74c4.52.66,8.64-2.32,9.41-6.84.66-4.51-2.32-8.64-6.81-9.4l-23.66-3.74c-10.62-1.68-21.45,1.85-28.99,9.48-1.78,1.78-3.77,3.77-6.03,5.98-7.74-2.62-15.85-4.2-24.12-4.69l-10.15-.58c-15.39-.89-17.76-1.03-22.63-.74-4.1.23-8.29-.46-12.07-2.01l-9.46-3.94c.88-6.62-2.84-13.15-9.17-15.67l-33.88-13.37c-7.55-2.96-16.12.74-19.11,8.27l-42.59,107.93c-2.96,7.55.74,16.12,8.26,19.11.24.09.48.14.73.14l33.32,13.15c4.58,1.78,9.69,1.19,13.69-1.51l25.61,16.17,3.04,2.15c-5.3,10.08-2.93,22.82,5.91,30.34,4.69,3.97,10.51,6,16.58,5.83.81,6.03,3.77,11.45,8.5,15.43,4.76,4,10.57,6.02,16.58,5.84.81,6.03,3.77,11.44,8.48,15.4,4.69,4.02,10.54,6.06,16.69,5.85.83,6.03,3.86,11.56,8.48,15.41,4.5,3.79,10.08,5.82,15.91,5.82.69,0,1.39-.03,2.08-.09,6.59-.54,12.55-3.61,16.78-8.62l4.18-4.89,7.56,5.62c8.04,5.91,18.24,7.06,27.28,3.08,8.13-3.58,13.77-10.68,15.46-19.27,7.72,2.07,15.98.7,22.53-3.82,6.54-4.51,10.59-11.46,11.34-19.32,7.07.77,13.92-1.15,19.51-5.51,5.46-4.27,9.04-10.46,10.02-17.26,9.34,1.67,18.76-1.7,25.04-9.08,6.47-7.6,8.13-17.5,4.58-26.79l21.45-13.81c4.08,3.81,10.06,5.01,15.4,2.94l33.87-13.37c7.54-2.96,11.25-11.53,8.27-19.12ZM89.13,256.54l-30.64-12.09,41.31-104.7,30.64,12.09c-5.29,13.38-36.38,92.17-41.32,104.7ZM155.55,305.81c-.14.1-.26.21-.37.34-2.93,3.46-8.14,3.88-11.63.93-1.68-1.42-2.69-3.41-2.87-5.61-.17-2.2.51-4.34,1.94-6.02l15.45-18.11c1.41-1.67,3.39-2.69,5.59-2.87.23-.02.46-.03.7-.03,1.95,0,3.83.69,5.34,1.97,3.46,2.93,3.88,8.14.93,11.63l-15.07,17.76ZM180.33,327.32c-.09.11-.17.23-.24.36-1.4,1.51-3.29,2.43-5.37,2.6-2.2.17-4.34-.52-6.02-1.94-3.46-2.93-3.88-8.14-.93-11.62l15.44-18.1c1.49-1.75,3.68-2.8,6.02-2.88.1,0,.2,0,.3,0,2.12,0,4.1.78,5.65,2.22.07.11.15.22.24.31,2.87,3.07,2.98,7.78.27,10.96l-15.36,18.1ZM205.78,348.4c-.14.1-.26.21-.37.34-2.93,3.46-8.14,3.88-11.63.93-1.68-1.42-2.69-3.41-2.87-5.6-.17-2.2.51-4.34,1.94-6.02l15.45-18.11c1.42-1.68,3.41-2.69,5.6-2.87.22-.02.45-.03.67-.03,1.96,0,3.84.69,5.35,1.97,3.46,2.93,3.88,8.14.93,11.62l-15.07,17.76ZM246.13,351.67l-.02.02c-.13.13-.24.29-.33.46-.86,1-2.12,2.49-3.64,4.27-3.2,3.76-7.53,8.86-11.59,13.57-1.42,1.68-3.41,2.69-5.61,2.87-2.21.17-4.34-.52-6.02-1.94-1.68-1.42-2.69-3.41-2.87-5.6-.17-2.2.51-4.34,1.94-6.02l15.45-18.1c1.62-1.91,3.93-2.89,6.27-2.89,1.89,0,3.8.65,5.36,1.97,1.68,1.41,2.7,3.39,2.88,5.58.18,2.12-.47,4.18-1.83,5.82ZM238.78,322c-.84-5.97-3.86-11.5-8.48-15.42-4.71-3.95-10.52-6.01-16.54-5.85-.66-4.81-2.63-9.18-5.73-12.69-4.89-5.64-12.03-8.74-19.38-8.54-.81-6.03-3.78-11.44-8.49-15.42-5.03-4.24-11.43-6.28-18-5.74-6.59.54-12.55,3.61-16.78,8.63l-8.21,9.66-3.99-2.78c-.05-.04-.11-.07-.16-.1-.05-.04-.11-.08-.16-.12l-26.24-16.55c8.71-22.06,12.26-31.06,15.33-38.87,3.97-10.08,7.16-18.17,19.68-49.84l8.74,3.69c6.07,2.51,12.8,3.66,19.5,3.3,3.66-.26,5.36-.16,18.6.62,3.29.19,7.29.43,12.21.71,3.54.17,7.12.64,10.84,1.41-12.37,10.96-24.92,20.61-36.48,28.04-4.75,3.05-7.79,8.01-8.33,13.6-.54,5.56,1.48,10.97,5.54,14.85,10.87,10.35,35.06,22.33,75.09-13.49,17.35,17.98,40.05,27.75,63.71,27.74,3.76,0,7.55-.25,11.34-.75l.13.09q1.6,1.14,36.29,26.74l2.7,1.99,9.68,7.14c2.41,1.77,4.03,4.49,4.44,7.45.38,2.77-.33,5.49-2.01,7.64-3.51,4.49-9.84,5.35-14.42,1.95l-2.22-1.64c-2.93-2.16-3.21-2.38-10.34-7.85-.71-.54-1.46-1.12-2.32-1.78l-13-9.97c-1.75-1.33-3.91-1.9-6.08-1.61-2.18.29-4.12,1.41-5.44,3.16-2.75,3.62-2.05,8.79,1.53,11.51l11.83,9.14,9.45,7.3c2.98,4.11,2.51,9.88-1.14,13.53-3.65,3.64-9.62,3.96-13.91.72-.88-.65-1.47-1.09-1.98-1.47-.93-.68-1.57-1.16-3.17-2.38-2.44-1.86-7.09-5.43-18.33-14.08-1.75-1.33-3.91-1.9-6.08-1.61-2.18.29-4.12,1.41-5.44,3.16-2.75,3.62-2.05,8.79,1.54,11.51l8.36,6.43,10.52,8.09c2.88,3.94,2.65,9.42-.56,13.12-3.54,4.03-9.87,4.56-14.41,1.21l-3.32-2.44c-1.61-1.18-2.53-1.86-3.74-2.78-1.63-1.23-3.77-2.89-8.81-6.79l-4.95-3.83c-3.59-2.72-8.75-2.08-11.52,1.47-2.72,3.59-2.08,8.75,1.45,11.51l6.68,5.17,6.22,4.81c2.32,4.02,1.72,9.1-1.5,12.46-3.63,3.77-9.71,4.17-14.15.94l-.55-.41-6.09-4.47.51-.6c4.26-5.01,6.32-11.39,5.79-17.98-.52-6.52-3.6-12.49-8.68-16.81-4.77-4-10.59-6.04-16.59-5.84Z"></path></svg>